<svg width="42" height="68" viewBox="0 0 42 68" fill="none" xmlns="http://www.w3.org/2000/svg">
<path d="M13.2244 32.5377C13.2244 32.5377 13.2622 32.5754 13.281 32.5942C14.5069 33.8138 16.4557 33.795 17.6628 32.5377C18.8698 31.2804 18.8886 29.2498 17.7193 27.9548C17.7005 27.9548 17.6816 27.9359 17.6628 27.917C17.6439 27.8982 17.625 27.8793 17.6062 27.8605C16.3803 26.6409 14.4315 26.6597 13.2056 27.917C11.9986 29.1743 11.9797 31.2049 13.149 32.4811C13.1867 32.4999 13.2056 32.5377 13.2244 32.5377Z" fill="black"/>
<path d="M31.3929 13.9674C31.3929 13.9674 31.3551 13.9297 31.3363 13.9109C31.3174 13.892 31.2986 13.8731 31.2797 13.8543C30.0287 12.6347 28.0358 12.6536 26.7848 13.9109C25.5526 15.1682 25.5338 17.1987 26.7282 18.4938L26.7848 18.5504C26.8225 18.5504 26.8414 18.5692 26.8602 18.5881C28.1113 19.8077 30.1041 19.7888 31.33 18.5315C32.581 17.2742 32.5999 15.2436 31.3866 13.9674H31.3929Z" fill="black"/>
<path d="M37.3576 35.0028C37.3576 40.2458 35.5848 45.4888 32.2466 50.1911C26.2681 58.6089 15.9455 63.7764 4.4788 64.141V56.8675C10.5894 56.4777 16.0775 53.5796 19.3214 49.0093C20.6039 47.1924 21.4526 45.1367 21.8675 42.993C27.9969 42.7227 33.6359 39.7051 37.3513 34.8456V35.0028H37.3576ZM8.30733 8.93232C12.1736 4.96549 17.6806 3.02922 23.0934 3.70817C24.7907 3.92191 26.4504 4.38712 28.0157 5.08493C22.8482 5.569 18.6802 9.80615 18.1332 15.068C17.9824 16.5202 18.1144 18.0101 18.4916 19.3806C13.4183 17.8718 7.83583 20.4242 5.57267 25.3214C5.02573 26.5222 4.68626 27.8172 4.55424 29.15C2.30993 23.8504 2.66827 17.5764 5.53495 12.5848C6.3082 11.2709 7.25118 10.0325 8.30733 8.92603C5.00687 12.3334 11.6266 5.53756 8.30733 8.92603V8.93232ZM34.4532 33.7769C32.737 32.0166 31.0396 30.2752 29.3234 28.515C27.3242 26.4656 25.3062 24.391 23.3071 22.3416C21.7606 20.7574 20.8176 18.6639 20.7799 16.4008C20.7233 13.4398 22.2321 10.592 24.7027 9.06434C27.3242 7.43611 30.719 7.39839 33.3405 9.06434C34.5475 9.83758 35.3773 11.0949 36.1129 12.3334C36.8484 13.553 37.433 14.848 37.8668 16.2059C39.5642 21.5243 38.7344 27.484 35.6791 32.1298C35.3019 32.7082 34.887 33.2551 34.4532 33.7769ZM7.27004 29.3826C7.60952 25.5477 10.5139 22.3604 14.2293 21.8135C16.9074 21.4049 19.51 22.3919 21.4148 24.347C22.5087 25.466 23.6026 26.5913 24.6964 27.7166C26.3184 29.3826 27.9403 31.0422 29.5622 32.7082C30.2035 33.3682 30.8447 34.022 31.5048 34.701C31.7123 34.9147 31.9197 35.1285 32.1272 35.3422C32.2215 35.4365 32.4289 35.5748 32.4855 35.7131C32.4855 35.732 32.5232 35.7509 32.5232 35.7509C29.4868 38.4415 25.5828 39.988 21.5846 40.1452C17.6052 40.3023 13.6258 39.045 10.4196 36.6247C9.96698 36.2789 9.43891 35.908 9.06172 35.4805C8.60908 34.9587 8.28847 34.3364 7.98671 33.7014C7.34548 32.3875 7.13802 30.8599 7.27004 29.3888V29.3826ZM19.1328 42.9301C18.7556 44.4955 18.0955 45.9665 17.1525 47.3056C14.399 51.1781 9.74067 53.6173 4.49766 53.9631V34.6318C8.02443 39.4096 13.2674 42.4335 19.1328 42.9364V42.9301ZM36.1883 7.78816L36.094 7.675C35.9997 7.5807 35.9054 7.46126 35.83 7.36696L35.7357 7.27266C35.6414 7.17836 35.5659 7.07778 35.4716 6.98348C35.3773 6.88918 35.283 6.78859 35.1887 6.71316L35.0567 6.61886C31.2282 2.88463 26.2115 0.810059 20.9119 0.810059H20.6667C15.2917 0.885498 10.2184 3.07323 6.40878 6.98348C2.59912 10.8937 0.449106 16.099 0.392527 21.6312C0.354808 24.3784 0.84516 27.0502 1.78815 29.5271V67.014H3.14605C16.0272 67.014 27.7266 61.3435 34.4595 51.8634C38.1371 46.6769 40.0797 40.8304 40.0797 34.9902V29.4769C42.7955 22.2976 41.5319 13.8799 36.1946 7.80073L36.1883 7.78816Z" fill="black"/>
</svg>
