<svg width="176" height="172" viewBox="0 0 176 172" fill="none" xmlns="http://www.w3.org/2000/svg">
<path d="M6.43415 33.5448L13.5448 30.4408C15.9251 34.5219 19.1264 35.1532 24.2334 32.921C27.9393 31.3051 30.6284 28.5844 29.1822 25.285C27.6531 21.7826 23.9396 22.5718 17.9287 23.6992C10.8783 25.0445 4.27986 25.9013 1.0183 18.4532C-2.06248 11.4184 2.10298 5.25548 10.0648 1.7832C18.1321 -1.73418 25.0695 -0.0581643 28.7754 6.90143L21.8154 9.9378C19.8419 6.51061 16.249 5.93941 12.5354 7.5553C8.6261 9.26138 6.79571 12.0197 7.91051 14.575C9.1835 17.4761 12.0534 17.2281 17.8684 16.0631C25.9357 14.4548 32.7074 13.5829 36.0819 21.2791C39.2531 28.5243 35.1705 35.1306 27.1032 38.648C17.3864 42.8869 9.98947 40.9854 6.43415 33.5523V33.5448Z" fill="white"/>
<path d="M38.932 30.2255L53.4094 8.06152L60.053 12.3831L45.5756 34.5471C43.3686 37.9292 43.5117 41.409 47.9558 44.295C52.1665 47.0383 55.752 45.8508 57.959 42.4687L72.3761 20.3949L79.0197 24.7165L64.5423 46.8804C59.9777 53.8701 53.0177 55.1403 44.634 49.6913C36.16 44.1823 34.3146 37.3204 38.9395 30.233L38.932 30.2255Z" fill="white"/>
<path d="M42.8107 51.5469L57.5141 60.3929C61.4008 62.7303 63.6229 65.6013 64.3762 68.788C65.0917 71.8319 64.6323 75.1238 62.7717 78.2053C58.9603 84.511 52.2263 86.2547 45.206 82.0308L36.9655 77.0704L29.6515 89.1708L22.6312 84.9469L42.8182 51.5469H42.8107ZM40.2949 71.5613L47.3151 75.7852C50.8704 77.9272 53.9286 77.0929 55.7665 74.0566C57.6572 70.93 56.7608 67.9688 53.3938 65.9396L46.2756 61.6556L40.2949 71.5613V71.5613Z" fill="white"/>
<path d="M61.0394 51.4053L87.2373 39.583L89.9867 45.6482L71.0124 54.2162L74.6205 62.1679L91.2597 54.6596L93.9412 60.5745L77.302 68.0828L81.6483 77.6729L100.773 69.0373L103.5 75.0499L77.1514 86.9398L61.0394 51.4053V51.4053Z" fill="white"/>
<path d="M122.758 34.0039L135.247 46.8408C140.505 52.2447 140.866 58.8811 136.196 63.4056C132.904 66.5998 128.905 67.5016 124.423 64.8486L124.302 64.9613C126.072 68.2683 125.877 71.0416 122.803 74.7017C119.225 78.9331 116.047 81.6989 116.566 83.0968L116.295 83.3599L111 77.9185C110.631 76.9114 113.689 73.7923 116.484 70.6357C119.316 67.434 119.369 64.0444 115.941 60.5195L111.49 55.9424L100.229 66.8478L94.7073 61.1734L122.758 34.0114V34.0039ZM115.881 51.6885L121.741 57.7161C124.747 60.8051 127.843 60.775 130.08 58.6105C132.355 56.4084 132.633 53.3269 129.703 50.3131L123.685 44.1276L115.881 51.6885V51.6885Z" fill="white"/>
<path d="M0.695435 98.8593L11.5271 96.2137L21.5528 113.928C24.0461 118.37 26.4489 123.571 26.4489 123.571L26.5544 123.549C26.5544 123.549 26.223 117.844 26.3812 112.756L27.0817 92.4258L38.0715 89.7427L47.3591 127.63L40.1882 129.381L34.8627 107.66C34.1095 104.586 33.2583 99.7386 33.2583 99.7386L33.1528 99.7612C33.1528 99.7612 33.3939 104.421 33.2734 107.367L32.2263 131.32L24.8445 133.124L12.9884 112.32C11.5196 109.757 9.57621 105.518 9.57621 105.518L9.47076 105.541C9.47076 105.541 10.9622 110.231 11.7154 113.305L17.0409 135.025L9.97543 136.746L0.695435 98.8593Z" fill="white"/>
<path d="M73.2032 85.646L80.7733 88.7951L78.4609 130.087L70.838 126.923L71.6139 118.264L58.5902 112.853L53.0237 119.52L45.6042 116.438L73.1957 85.6535L73.2032 85.646ZM62.6427 107.968L72.1788 111.929L73.2785 100.212C73.4744 98.047 74.1297 94.0637 74.1297 94.0637L74.0318 94.0186C74.0318 94.0186 71.6063 97.2654 70.2053 98.9263L62.6427 107.96V107.968Z" fill="white"/>
<path d="M87.3619 86.4047L105.033 83.3458C112.468 82.0606 118.17 85.5028 119.277 91.8987C120.06 96.4157 118.561 100.219 113.839 102.421L113.869 102.579C117.605 102.984 119.789 104.713 121.085 109.305C122.569 114.641 123.073 118.813 124.52 119.173L124.587 119.549L117.1 120.842C116.053 120.579 115.202 116.295 114.162 112.214C113.108 108.08 110.328 106.126 105.485 106.96L99.1804 108.05L101.862 123.472L94.0508 124.825L87.377 86.3972L87.3619 86.4047ZM98.1258 102.037L106.419 100.602C110.675 99.8654 112.392 97.295 111.858 94.2361C111.323 91.1772 108.92 89.1555 104.777 89.8695L96.2653 91.3426L98.1258 102.037Z" fill="white"/>
<path d="M70.7401 133.604L78.5211 132.116L81.4588 147.38L93.2923 129.29L102.956 127.441L90.8669 145.637L111.28 165.553L102.151 167.297L86.3625 151.769L83.2063 156.482L85.8804 170.409L78.0993 171.897L70.7401 133.596V133.604Z" fill="white"/>
<path d="M120.22 121.389L146.727 132.504L144.143 138.637L124.943 130.58L121.553 138.622L138.388 145.68L135.865 151.662L119.03 144.605L114.94 154.308L134.29 162.425L131.729 168.512L105.072 157.329L120.22 121.374V121.389Z" fill="white"/>
<path d="M143.81 121.437L174.151 113.245L175.891 119.671L164.547 122.738L173.014 153.958L165.361 156.025L156.894 124.804L145.55 127.871L143.81 121.445V121.437Z" fill="white"/>
<path d="M165.263 170.364C168.246 170.364 170.664 167.951 170.664 164.975C170.664 161.999 168.246 159.586 165.263 159.586C162.28 159.586 159.862 161.999 159.862 164.975C159.862 167.951 162.28 170.364 165.263 170.364Z" fill="white"/>
</svg>
